HIERARCHY
ROOT ui
{
	 OFFSET 0 0 0
	 CHANNELS 3 XPosition YPosition Z Position
	 EndSite
	 {
	 OFFSET 0 -1 0
	 }
}
ROOT li
{
	 OFFSET 0 0 0
	 CHANNELS 3 XPosition YPosition Z Position
	 EndSite
	 {
	 OFFSET 0 -1 0
	 }
}
ROOT ul
{
	 OFFSET 0 0 0
	 CHANNELS 3 XPosition YPosition Z Position
	 EndSite
	 {
	 OFFSET 0 -1 0
	 }
}
ROOT ll
{
	 OFFSET 0 0 0
	 CHANNELS 3 XPosition YPosition Z Position
	 EndSite
	 {
	 OFFSET 0 -1 0
	 }
}
ROOT tt
{
	 OFFSET 0 0 0
	 CHANNELS 3 XPosition YPosition Z Position
	 EndSite
	 {
	 OFFSET 0 -1 0
	 }
}
ROOT tb
{
	 OFFSET 0 0 0
	 CHANNELS 3 XPosition YPosition Z Position
	 EndSite
	 {
	 OFFSET 0 -1 0
	 }
}
ROOT td
{
	 OFFSET 0 0 0
	 CHANNELS 3 XPosition YPosition Z Position
	 EndSite
	 {
	 OFFSET 0 -1 0
	 }
}
ROOT v
{
	 OFFSET 0 0 0
	 CHANNELS 3 XPosition YPosition Z Position
	 EndSite
	 {
	 OFFSET 0 -1 0
	 }
}
ROOT bn
{
	 OFFSET 0 0 0
	 CHANNELS 3 XPosition YPosition Z Position
	 EndSite
	 {
	 OFFSET 0 -1 0
	 }
}
MOTION
Frames: 13
Frame Time: 0.002
0.0027934529781341554	0.00316788911819458	0		0.5029624633789063	-2.40134130859375	0		-0.9692448120117187	0.28329928588867187	0		-0.6634404907226562	-2.627443603515625	0		1.715732421875	-0.7027570190429687	0		3.400237060546875	-0.6801927490234375	0		4.67600341796875	-0.5676891479492188	0		5.9402197265625	0.403072265625	0		-0.14828219604492188	5.92698291015625	0		
0.002651688098907471	0.0029268178939819336	0		0.5278236083984374	-2.406927734375	0		-0.9033881225585938	0.2830712585449219	0		-0.6424702758789063	-2.62601025390625	0		1.715613525390625	-0.7029425659179688	0		3.423245361328125	-0.6716575927734375	0		4.67075048828125	-0.5767055053710938	0		5.944166015625	0.40996493530273437	0		-0.16475898742675782	5.9169697265625	0		
-0.0015424619913101197	-0.0012719420194625855	0		0.46977389526367186	-2.405332275390625	0		-0.979524658203125	0.28388729858398437	0		-0.6764586181640625	-2.62079443359375	0		1.7215968017578125	-0.6962396240234375	0		3.43615478515625	-0.6700081176757813	0		4.6706298828125	-0.5768335571289063	0		5.93991748046875	0.40293060302734374	0		-0.1660445556640625	5.91772265625	0		
-0.0016724870204925537	-0.001546038031578064	0		0.5256488037109375	-2.4094033203125	0		-0.8996117553710937	0.286436767578125	0		-0.6745011596679688	-2.61911279296875	0		1.6886156005859374	-0.6869999389648438	0		3.4304443359375	-0.6421212768554687	0		4.6626142578125	-0.569887939453125	0		5.9358798828125	0.4098470458984375	0		-0.15115052795410155	5.92822705078125	0		
-0.0017941269874572753	-0.001838276982307434	0		0.47367526245117186	-2.401937744140625	0		-1.0096693115234374	0.29171337890625	0		-0.7054443969726563	-2.609970947265625	0		1.6997064208984376	-0.6734227294921875	0		3.435073974609375	-0.660424072265625	0		4.6714443359375	-0.5742283935546875	0		5.9396494140625	0.4026010437011719	0		-0.15236065673828125	5.92894677734375	0		
0.005194643020629883	0.00474894380569458	0		0.5196757202148438	-2.396906005859375	0		-0.8947962036132813	0.2897340087890625	0		-0.703494384765625	-2.608320068359375	0		1.7446708984375	-0.6693609619140625	0		3.44212841796875	-0.6497941284179688	0		4.65857177734375	-0.5582955932617187	0		5.939533203125	0.40236428833007815	0		-0.03438583374023438	5.93893359375	0		
-0.002004307985305786	-0.002480777978897095	0		0.4817149963378906	-2.38868701171875	0		-0.8999544677734375	0.2854679870605469	0		-0.630666259765625	-2.61570654296875	0		1.7476346435546875	-0.6657217407226562	0		3.451990478515625	-0.6532413330078125	0		4.67533154296875	-0.5688330078125	0		5.93943115234375	0.4020806884765625	0		-0.1688205871582031	5.9195322265625	0		
-0.0020890638828277588	-0.0028329010009765627	0		0.5086072998046876	-2.391425537109375	0		-0.91090966796875	0.2942698974609375	0		-0.6765498657226563	-2.602400634765625	0		1.7506094970703125	-0.6621111450195313	0		3.4430673828125	-0.6424526977539062	0		4.6622216796875	-0.5709810791015625	0		5.92644677734375	0.40893624877929685	0		-0.16892671203613283	5.91917919921875	0		
-0.0021578130722045897	-0.003206723928451538	0		0.47336822509765625	-2.403295166015625	0		-0.9869703979492187	0.29498977661132814	0		-0.6657362670898438	-2.610931640625	0		1.7596976318359374	-0.6516165161132812	0		3.469765380859375	-0.6592151489257813	0		4.66523828125	-0.5654012451171875	0		5.94024755859375	0.3993586730957031	0		-0.18596162414550782	5.9210498046875	0		
0.0018487859964370728	3.3953401446342466E-4	0		0.4944637451171875	-2.39299609375	0		-0.8951011352539062	0.2882749328613281	0		-0.694636474609375	-2.599908447265625	0		1.7677874755859375	-0.6421358032226563	0		3.465403076171875	-0.6115584716796875	0		4.67234326171875	-0.55491845703125	0		5.939443359375	0.41595065307617185	0		-0.00541608190536499	5.95906103515625	0		
0.004861731052398682	0.0028784830570220948	0		0.46263592529296876	-2.3779580078125	0		-0.901941162109375	0.30096322631835937	0		-0.6306196899414063	-2.59624267578125	0		1.7708101806640626	-0.638609619140625	0		3.458052978515625	-0.6338977661132813	0		4.67922216796875	-0.5614695434570313	0		5.926302734375	0.40767855834960937	0		-0.20307392883300782	5.913484375	0		
0.0018115509748458862	-5.170930027961731E-4	0		0.48347393798828125	-2.387703125	0		-0.9119301147460938	0.3016767883300781	0		-0.7164701538085938	-2.583438232421875	0		1.763028076171875	-0.6229521484375	0		3.465197265625	-0.6234720458984375	0		4.66821044921875	-0.561795166015625	0		5.93019775390625	0.4001256103515625	0		-0.03663824081420899	5.93865283203125	0		
0.0018282250165939332	-9.776350259780883E-4	0		0.4834625244140625	-2.38816943359375	0		-0.9059826049804688	0.2961409912109375	0		-0.6534615478515625	-2.582798828125	0		1.779963623046875	-0.628677978515625	0		3.47514794921875	-0.6281171264648437	0		4.67817626953125	-0.5654544677734376	0		5.92220556640625	0.3987107849121094	0		-0.15568350219726562	5.92990966796875	0		
